<?xml version="1.0" encoding="iso-8859-1"?>
<!-- Generator: Adobe Illustrator 19.0.0, SVG Export Plug-In . SVG Version: 6.00 Build 0)  -->
<svg version="1.1" id="Layer_1" xmlns="http://www.w3.org/2000/svg" xmlns:xlink="http://www.w3.org/1999/xlink" x="0px" y="0px"
	 viewBox="0 0 512.002 512.002" style="enable-background:new 0 0 512.002 512.002;" xml:space="preserve">
<path style="fill:#0778B8;" d="M496.932,245.503L323.912,7.366c-4.548-6.261-12.609-8.884-19.968-6.488L24,91.834
	c-7.358,2.391-12.341,9.249-12.341,16.986S16.641,123.416,24,125.807l400.686,130.195L24,386.195
	c-7.36,2.391-12.341,9.249-12.341,16.986c0,7.737,4.983,14.595,12.341,16.986l279.943,90.958c7.36,2.392,15.421-0.23,19.968-6.488
	L496.93,266.5C501.48,260.239,501.48,251.763,496.932,245.503z"/>
<path style="fill:#224F9C;" d="M424.684,256h0.002L24,386.195c-7.36,2.391-12.341,9.249-12.341,16.986
	c0,7.737,4.983,14.595,12.341,16.986l279.943,90.958c7.36,2.392,15.421-0.229,19.968-6.488L496.93,266.5
	c2.274-3.129,3.411-6.814,3.411-10.498h-75.658V256z"/>
<path style="fill:#A2D5F2;" d="M11.66,403.182V108.821c0-12.151,11.884-20.729,23.379-16.986l452.962,147.18
	c16.409,5.331,16.401,28.643,0,33.972L35.039,420.167C23.506,423.913,11.66,415.299,11.66,403.182z"/>
<path style="fill:#0778B8;" d="M11.66,256v147.181c0,12.119,11.846,20.731,23.379,16.986l452.962-147.18
	c8.201-2.664,12.303-9.826,12.303-16.986H11.66V256z"/>
<g>
</g>
<g>
</g>
<g>
</g>
<g>
</g>
<g>
</g>
<g>
</g>
<g>
</g>
<g>
</g>
<g>
</g>
<g>
</g>
<g>
</g>
<g>
</g>
<g>
</g>
<g>
</g>
<g>
</g>
</svg>
