<svg viewBox="0 0 430.491 95.2" xmlns="http://www.w3.org/2000/svg"><g id="svgGroup"><path d="M 372.7 60 L 372.7 32.8 Q 371.3 31.9 370.3 30.6 A 7.719 7.719 0 0 1 368.952 27.811 A 8.909 8.909 0 0 1 368.9 27.6 A 2.813 2.813 0 0 1 368.843 27.295 Q 368.8 26.977 368.8 26.55 A 7.689 7.689 0 0 1 368.877 25.451 A 6.997 6.997 0 0 1 368.9 25.3 Q 369 24.7 369.25 24.25 A 0.948 0.948 0 0 1 369.457 23.989 Q 369.676 23.8 370 23.8 Q 370.5 23.8 371.2 24 Q 371.9 24.2 372.5 24.4 Q 373.869 24.889 376.003 25.808 A 118.469 118.469 0 0 1 376.1 25.85 Q 378.3 26.8 379.5 27.8 Q 381.3 29 381.3 31.9 L 381.3 33.4 A 13.488 13.488 0 0 1 383.796 31.24 A 17.219 17.219 0 0 1 385.65 30.15 A 12.237 12.237 0 0 1 389.394 28.974 A 16.016 16.016 0 0 1 391.8 28.8 Q 396.036 28.8 399.12 30.218 A 12.867 12.867 0 0 1 399.5 30.4 A 10.629 10.629 0 0 1 403.012 33.275 A 15.083 15.083 0 0 1 404.7 35.9 Q 405.1 34.4 406 33.15 Q 406.9 31.9 408.05 31 A 12.374 12.374 0 0 1 409.655 29.928 A 10.68 10.68 0 0 1 410.4 29.55 A 15.019 15.019 0 0 1 411.258 29.187 Q 411.677 29.025 412.052 28.916 A 7.082 7.082 0 0 1 412.5 28.8 A 11.333 11.333 0 0 1 414.657 28.588 A 10.448 10.448 0 0 1 418.45 29.3 A 11.486 11.486 0 0 1 422.725 32.224 A 13.969 13.969 0 0 1 423.4 33 A 16.331 16.331 0 0 1 425.274 35.949 Q 426.001 37.397 426.569 39.126 A 28.534 28.534 0 0 1 426.75 39.7 A 27.069 27.069 0 0 1 427.647 43.851 Q 428 46.378 428 49.3 Q 428 53.5 427.7 57.7 Q 427.416 61.681 428.749 65.663 A 23.223 23.223 0 0 0 428.9 66.1 Q 429.4 67.4 430.15 68.95 A 4.264 4.264 0 0 1 430.337 69.396 Q 430.766 70.619 430 71.3 Q 429.6 71.6 428.8 71.55 A 7.567 7.567 0 0 1 427.815 71.42 A 9.542 9.542 0 0 1 427.1 71.25 Q 426.2 71 425.35 70.7 Q 424.586 70.43 424.186 70.161 A 2.065 2.065 0 0 1 424.1 70.1 Q 422.4 69.1 421.35 67.35 A 13.184 13.184 0 0 1 419.97 64.112 A 15.139 15.139 0 0 1 419.8 63.45 Q 419.3 61.3 419.15 58.95 A 72.393 72.393 0 0 1 419.002 54.952 A 65.368 65.368 0 0 1 419 54.4 Q 419 50.5 418.75 47.35 A 29.534 29.534 0 0 0 418.492 45.121 Q 418.313 43.975 418.049 42.989 A 15.35 15.35 0 0 0 417.75 42 A 9.151 9.151 0 0 0 417.025 40.378 Q 416.43 39.346 415.604 38.645 A 5.832 5.832 0 0 0 415.55 38.6 A 4.923 4.923 0 0 0 413.713 37.664 Q 413.007 37.466 412.172 37.416 A 9.679 9.679 0 0 0 411.6 37.4 A 4.65 4.65 0 0 0 409.429 37.951 A 6.103 6.103 0 0 0 408.7 38.4 A 6.635 6.635 0 0 0 406.765 40.586 A 8.023 8.023 0 0 0 406.5 41.1 Q 406.9 43 407.1 45 A 40.158 40.158 0 0 1 407.272 47.617 A 49.129 49.129 0 0 1 407.3 49.3 A 73.377 73.377 0 0 1 407.124 54.307 A 80.181 80.181 0 0 1 407.1 54.65 Q 406.9 57.4 406.85 60.15 A 50.501 50.501 0 0 0 406.842 61.068 A 52.063 52.063 0 0 0 407.05 65.7 Q 407.3 68.5 408.2 71.1 A 6.9 6.9 0 0 0 408.409 71.643 Q 408.529 71.922 408.683 72.226 A 12.839 12.839 0 0 0 408.8 72.45 A 11.718 11.718 0 0 1 409.237 73.357 A 9.58 9.58 0 0 1 409.45 73.9 A 4.395 4.395 0 0 1 409.652 74.672 A 3.595 3.595 0 0 1 409.7 75.25 A 1.72 1.72 0 0 1 409.639 75.72 A 1.312 1.312 0 0 1 409.3 76.3 Q 408.9 76.6 408.1 76.55 A 7.567 7.567 0 0 1 407.115 76.42 A 9.542 9.542 0 0 1 406.4 76.25 Q 405.5 76 404.65 75.7 A 8.729 8.729 0 0 1 404.185 75.522 Q 403.754 75.341 403.486 75.161 A 2.065 2.065 0 0 1 403.4 75.1 Q 401.4 73.9 400.35 71.6 Q 399.3 69.3 398.85 66.55 A 39.185 39.185 0 0 1 398.358 61.218 A 42.905 42.905 0 0 1 398.35 60.85 Q 398.3 57.9 398.3 55.4 Q 398.3 51.5 398.15 48.4 A 27.3 27.3 0 0 0 397.937 46.03 Q 397.778 44.863 397.518 43.86 A 14.421 14.421 0 0 0 397.3 43.1 A 8.161 8.161 0 0 0 396.599 41.486 A 5.83 5.83 0 0 0 395.1 39.75 A 5.055 5.055 0 0 0 393.494 38.944 Q 392.377 38.6 390.9 38.6 Q 390.1 38.6 389.35 38.75 A 10.79 10.79 0 0 0 388.745 38.891 Q 388.206 39.031 387.55 39.25 Q 386.829 39.49 385.896 39.872 A 47.387 47.387 0 0 0 385 40.25 A 139.33 139.33 0 0 1 383.777 40.773 Q 383.226 41.005 382.607 41.262 A 288.745 288.745 0 0 1 381.3 41.8 L 381.4 59.9 A 32.487 32.487 0 0 1 381.076 64.558 A 28.42 28.42 0 0 1 380.8 66.15 A 28.147 28.147 0 0 1 380.198 68.578 Q 379.763 70.041 379.2 71.25 Q 378.27 73.249 377.038 74.513 A 8.377 8.377 0 0 1 376.85 74.7 Q 375.597 75.906 374.216 75.993 A 3.43 3.43 0 0 1 374 76 Q 373.497 76 373.205 74.561 A 11.339 11.339 0 0 1 373.1 73.95 A 35.515 35.515 0 0 1 372.876 72.032 Q 372.786 71.047 372.732 69.947 A 61.985 61.985 0 0 1 372.7 69.2 A 96.661 96.661 0 0 1 372.633 65.622 A 93.942 93.942 0 0 1 372.65 63.85 Q 372.698 61.299 372.7 60.092 A 61.37 61.37 0 0 0 372.7 60 Z M 260.6 72.2 L 245.1 68.9 A 21.624 21.624 0 0 1 243.277 68.458 Q 242.418 68.207 241.711 67.905 A 8.757 8.757 0 0 1 240.45 67.25 Q 239.229 66.473 238.501 65.642 A 5.272 5.272 0 0 1 238.05 65.05 A 7.107 7.107 0 0 1 237.611 64.283 Q 237.411 63.873 237.305 63.491 A 3.311 3.311 0 0 1 237.2 62.95 A 34.675 34.675 0 0 1 237.156 62.509 Q 237.106 61.964 237.101 61.667 A 3.75 3.75 0 0 1 237.1 61.6 A 5.697 5.697 0 0 1 237.423 59.741 A 7.372 7.372 0 0 1 237.85 58.75 Q 238.6 57.3 239.65 56 Q 240.7 54.7 241.95 53.7 A 14.534 14.534 0 0 1 242.978 52.945 Q 243.664 52.489 244.3 52.2 Q 241.2 50.1 239.25 47.1 A 13.445 13.445 0 0 1 237.987 44.679 A 9.497 9.497 0 0 1 237.3 41.2 A 12.085 12.085 0 0 1 237.509 39.028 Q 237.745 37.734 238.25 36.3 A 13.788 13.788 0 0 1 240.556 32.214 A 16.447 16.447 0 0 1 241.35 31.3 Q 243.469 29.034 246.946 27.447 A 24.835 24.835 0 0 1 247.05 27.4 Q 250.6 25.8 255.9 25.7 Q 257.8 25.7 259.65 26.35 Q 261.5 27 263.2 28.1 A 10.83 10.83 0 0 1 265.464 25.084 A 13.752 13.752 0 0 1 266.9 23.9 A 16.316 16.316 0 0 1 272.006 21.459 A 18.744 18.744 0 0 1 272.6 21.3 Q 273.052 21.149 273.959 21.027 A 23.681 23.681 0 0 1 274.6 20.95 Q 275.834 20.818 276.291 21.113 A 0.658 0.658 0 0 1 276.4 21.2 A 1.233 1.233 0 0 1 276.651 21.577 Q 276.807 21.929 276.845 22.465 A 4.604 4.604 0 0 1 276.85 22.55 A 12.154 12.154 0 0 1 276.867 23.189 A 13.173 13.173 0 0 1 276.8 24.5 Q 276.7 25.5 276.45 26.35 Q 276.229 27.1 276.048 27.344 A 0.51 0.51 0 0 1 276 27.4 Q 275.549 27.851 274.608 28.425 A 17.313 17.313 0 0 1 274.4 28.55 A 25.379 25.379 0 0 1 272.793 29.42 A 30.1 30.1 0 0 1 272 29.8 Q 270.7 30.4 269.4 30.9 Q 268.354 31.302 267.502 31.575 A 22.755 22.755 0 0 1 267.1 31.7 Q 268.8 33.5 269.5 36 A 14.365 14.365 0 0 1 270.044 39.889 A 13.928 13.928 0 0 1 270 41 Q 269.8 44 268.5 46.6 Q 267.2 49.2 265 51.1 A 15.472 15.472 0 0 1 260.897 53.626 A 18.192 18.192 0 0 1 259.8 54.05 Q 257.061 55.009 253.822 55.009 A 22.384 22.384 0 0 1 253.2 55 A 23.112 23.112 0 0 1 252.782 54.996 Q 251.944 54.981 251.7 54.9 A 6.217 6.217 0 0 0 249.161 55.452 A 7.26 7.26 0 0 0 248.95 55.55 Q 247.6 56.2 246.55 57.1 Q 245.5 58 244.85 58.95 A 7.365 7.365 0 0 0 244.573 59.384 Q 244.2 60.021 244.2 60.4 A 1.762 1.762 0 0 0 244.841 61.604 Q 245.094 61.823 245.446 62.003 A 4.199 4.199 0 0 0 245.65 62.1 A 9.659 9.659 0 0 0 247.474 62.694 A 12.145 12.145 0 0 0 248.7 62.9 L 262.8 64.8 A 29.406 29.406 0 0 1 265.943 65.384 Q 268.369 65.981 270.15 66.95 Q 273 68.5 274.65 70.45 Q 276.3 72.4 276.9 74.5 A 16.538 16.538 0 0 1 277.35 76.523 A 12.337 12.337 0 0 1 277.5 78.4 A 18.915 18.915 0 0 1 276.611 83.72 A 17.434 17.434 0 0 1 276.1 85.1 Q 274.8 88.2 272.15 90.45 Q 269.5 92.7 265.4 93.95 Q 261.879 95.024 257.178 95.175 A 48.971 48.971 0 0 1 255.6 95.2 Q 251.236 95.2 247.986 94.379 A 18.684 18.684 0 0 1 246.1 93.8 Q 242.3 92.4 240 90.35 A 14.709 14.709 0 0 1 238.246 88.508 Q 237.284 87.294 236.75 86 A 14.28 14.28 0 0 1 236.135 84.197 Q 235.8 82.928 235.8 81.8 A 7.725 7.725 0 0 1 235.791 81.433 Q 235.791 79.491 236.75 77.3 A 28.28 28.28 0 0 1 237.545 75.627 Q 237.962 74.821 238.387 74.153 A 13.77 13.77 0 0 1 238.9 73.4 Q 239.8 72.2 240.8 71.4 Q 241.467 70.867 242.044 70.867 A 1.227 1.227 0 0 1 242.6 71 A 1.102 1.102 0 0 1 242.955 71.27 Q 243.299 71.677 243.121 72.417 A 2.823 2.823 0 0 1 243.1 72.5 A 14.176 14.176 0 0 0 242.889 73.395 Q 242.787 73.898 242.699 74.477 A 28.964 28.964 0 0 0 242.6 75.2 A 20.187 20.187 0 0 0 242.39 76.873 A 17.39 17.39 0 0 0 242.35 77.5 Q 242.314 78.3 242.568 79.417 A 14.738 14.738 0 0 0 242.8 80.3 A 4.02 4.02 0 0 0 242.85 80.439 Q 242.984 80.797 243.35 81.65 Q 243.68 82.42 244.467 83.217 A 9.655 9.655 0 0 0 245.1 83.8 A 7.699 7.699 0 0 0 246.217 84.574 Q 247.318 85.212 248.9 85.75 Q 250.58 86.321 253.027 86.508 A 33.809 33.809 0 0 0 255.6 86.6 Q 260.236 86.6 262.959 85.761 A 11.552 11.552 0 0 0 263.15 85.7 Q 265.9 84.8 267.35 83.5 A 7.704 7.704 0 0 0 268.217 82.594 Q 268.92 81.719 269.15 80.8 A 14.226 14.226 0 0 0 269.362 79.811 Q 269.5 79.027 269.5 78.4 A 3.04 3.04 0 0 0 269.231 77.195 Q 268.835 76.276 267.857 75.259 A 11.75 11.75 0 0 0 267.7 75.1 A 6.251 6.251 0 0 0 266.345 74.105 Q 264.347 72.978 260.6 72.2 Z M 58 54.1 L 58 10 A 2.228 2.228 0 0 0 57.968 9.605 Q 57.841 8.9 57.2 8.9 Q 56.511 8.9 55.441 8.871 A 142.363 142.363 0 0 1 54.75 8.85 Q 53.303 8.803 52.161 8.539 A 9.559 9.559 0 0 1 52 8.5 Q 50.8 8.2 50 7.3 Q 49.2 6.4 49.2 6.1 A 1.087 1.087 0 0 1 49.342 5.584 Q 49.595 5.113 50.3 4.6 A 34.336 34.336 0 0 1 50.948 4.139 Q 51.619 3.675 52.1 3.4 A 40.241 40.241 0 0 1 54.687 2.225 Q 56.075 1.65 57.65 1.1 A 26.449 26.449 0 0 1 59.516 0.52 Q 61.456 0 62.9 0 A 1.64 1.64 0 0 1 63.508 0.123 Q 63.724 0.209 63.947 0.355 A 3.331 3.331 0 0 1 64.15 0.5 Q 64.8 1 65.35 1.65 A 8.37 8.37 0 0 1 65.905 2.381 A 6.755 6.755 0 0 1 66.25 2.95 A 4.58 4.58 0 0 1 66.419 3.295 Q 66.568 3.638 66.594 3.893 A 1.034 1.034 0 0 1 66.6 4 L 66.6 28.9 A 12.099 12.099 0 0 1 68.438 27.17 Q 69.385 26.439 70.565 25.773 A 23.002 23.002 0 0 1 71.45 25.3 Q 74.6 23.7 78.1 23.7 Q 81.5 23.7 84.55 24.85 Q 87.6 26 89.85 28.5 Q 92.025 30.916 93.359 34.734 A 26.388 26.388 0 0 1 93.45 35 A 23.658 23.658 0 0 1 94.373 38.825 Q 94.68 40.743 94.766 42.939 A 44.829 44.829 0 0 1 94.8 44.7 Q 94.8 47.5 94.6 50.9 Q 94.4 54.3 94.35 57.8 A 81.578 81.578 0 0 0 94.342 58.965 A 80.013 80.013 0 0 0 94.55 64.75 A 29.899 29.899 0 0 0 95.018 68.329 A 23.42 23.42 0 0 0 95.7 71 Q 96.2 72.3 96.9 73.85 A 4.548 4.548 0 0 1 97.084 74.323 Q 97.356 75.163 97.11 75.745 A 1.425 1.425 0 0 1 96.8 76.2 Q 96.4 76.5 95.6 76.45 A 7.567 7.567 0 0 1 94.615 76.32 A 9.542 9.542 0 0 1 93.9 76.15 Q 93 75.9 92.15 75.6 Q 91.386 75.33 90.986 75.061 A 2.065 2.065 0 0 1 90.9 75 Q 88.9 73.7 87.85 71.4 A 20.85 20.85 0 0 1 86.507 67.398 A 23.862 23.862 0 0 1 86.3 66.4 Q 85.8 63.7 85.75 60.8 Q 85.7 57.9 85.7 55.3 A 138.84 138.84 0 0 0 85.717 53.65 Q 85.739 48.555 85.35 45.1 A 34.692 34.692 0 0 0 84.97 42.533 Q 84.734 41.289 84.421 40.244 A 14.903 14.903 0 0 0 83.85 38.65 Q 83.031 36.74 81.878 35.62 A 5.999 5.999 0 0 0 81.2 35.05 A 9.711 9.711 0 0 0 78.732 33.781 A 12.145 12.145 0 0 0 77.4 33.4 A 8.817 8.817 0 0 0 76.063 33.22 Q 74.206 33.106 71.85 33.65 A 12.433 12.433 0 0 0 69.161 34.586 A 9.514 9.514 0 0 0 66.6 36.4 L 66.6 53 A 53.934 53.934 0 0 1 66.467 56.903 Q 66.329 58.79 66.051 60.432 A 28.903 28.903 0 0 1 65.85 61.5 Q 65.1 65.1 63.95 67.5 A 15.553 15.553 0 0 1 63.174 68.935 Q 62.753 69.619 62.308 70.146 A 6.512 6.512 0 0 1 61.45 71 Q 60.308 71.931 59.273 71.931 A 2.264 2.264 0 0 1 58.9 71.9 A 0.628 0.628 0 0 1 58.49 71.635 Q 58.168 71.215 58.028 70.14 A 9.729 9.729 0 0 1 58 69.9 Q 57.863 68.594 57.82 66.886 A 65.164 65.164 0 0 1 57.8 65.25 A 167.256 167.256 0 0 1 57.856 60.984 A 190.521 190.521 0 0 1 57.9 59.5 A 193.943 193.943 0 0 0 57.973 56.735 Q 58 55.338 58 54.1 Z M 6 12.5 A 1.111 1.111 0 0 0 5.791 11.866 Q 5.666 11.682 5.465 11.506 A 3.311 3.311 0 0 0 5.05 11.2 A 17.343 17.343 0 0 1 4.126 10.572 Q 3.652 10.227 3.145 9.818 A 28.828 28.828 0 0 1 3 9.7 Q 1.9 8.8 0.95 7.55 Q 0 6.3 0 4.3 Q 0 3.4 0.3 3 A 2.154 2.154 0 0 1 0.669 2.613 A 1.826 1.826 0 0 1 1 2.4 A 1.926 1.926 0 0 1 1.45 2.238 A 1.633 1.633 0 0 1 1.8 2.2 L 2.5 2.2 A 13.066 13.066 0 0 1 4.379 2.342 A 17.01 17.01 0 0 1 5.95 2.65 Q 7.8 3.1 9.45 3.85 A 22.421 22.421 0 0 1 11.554 4.939 A 19.01 19.01 0 0 1 12.45 5.5 A 10.34 10.34 0 0 1 13.288 6.118 Q 13.681 6.441 13.977 6.764 A 4.477 4.477 0 0 1 14.4 7.3 Q 16.7 5.9 20.05 5.35 Q 23.4 4.8 26.5 4.8 A 26.31 26.31 0 0 1 33.267 5.654 A 24.34 24.34 0 0 1 34.45 6 Q 38.2 7.2 41.1 9.8 Q 44.4 12.8 45.75 17.2 A 30.472 30.472 0 0 1 46.981 23.289 A 26.796 26.796 0 0 1 47.1 25.8 A 13.465 13.465 0 0 1 46.551 29.722 A 11.139 11.139 0 0 1 44.6 33.45 A 19.634 19.634 0 0 1 38.583 38.474 A 22.401 22.401 0 0 1 38.35 38.6 Q 34.6 40.6 30.3 41.55 A 42.901 42.901 0 0 1 26.179 42.262 A 31.66 31.66 0 0 1 22.4 42.5 A 19.943 19.943 0 0 1 21.167 42.465 Q 19.372 42.353 18.668 41.885 A 1.209 1.209 0 0 1 18.4 41.65 Q 17.803 40.925 17.715 40.382 A 1.139 1.139 0 0 1 17.7 40.2 A 0.784 0.784 0 0 1 17.877 39.725 Q 18.212 39.281 19.18 38.859 A 8.341 8.341 0 0 1 19.2 38.85 Q 20.231 38.403 21.593 37.885 A 96.397 96.397 0 0 1 22.9 37.4 Q 25.1 36.6 27.75 35.55 A 25.164 25.164 0 0 0 31.902 33.458 A 22.927 22.927 0 0 0 32.6 33 A 15.66 15.66 0 0 0 35.864 30.053 A 14.574 14.574 0 0 0 36.3 29.5 A 7.482 7.482 0 0 0 37.745 25.743 A 9.665 9.665 0 0 0 37.8 24.7 A 9.798 9.798 0 0 0 37.647 23.029 Q 37.45 21.894 37 20.6 A 14.973 14.973 0 0 0 34.893 16.637 A 16.973 16.973 0 0 0 34.6 16.25 A 14.756 14.756 0 0 0 30.869 12.887 A 16.724 16.724 0 0 0 30.65 12.75 A 9.792 9.792 0 0 0 26.04 11.323 A 11.935 11.935 0 0 0 25.3 11.3 Q 22.7 11.3 20.2 12 A 17.357 17.357 0 0 0 16.919 13.306 A 21.413 21.413 0 0 0 15.2 14.3 A 443.428 443.428 0 0 0 15.222 18.584 Q 15.247 21.155 15.3 24.05 A 582.785 582.785 0 0 1 15.398 33.32 A 526.955 526.955 0 0 1 15.4 34.6 Q 15.4 39.7 15.15 44.6 Q 14.9 49.5 14.6 54 A 26.527 26.527 0 0 1 14.445 55.83 Q 14.34 56.722 14.173 57.718 A 51.068 51.068 0 0 1 13.95 58.95 A 34.178 34.178 0 0 1 12.681 63.708 A 31.189 31.189 0 0 1 12.45 64.35 A 28.239 28.239 0 0 1 11.58 66.438 Q 10.997 67.688 10.35 68.7 A 6.449 6.449 0 0 1 9.767 69.486 Q 8.957 70.407 8.078 70.492 A 1.863 1.863 0 0 1 7.9 70.5 Q 7.707 70.5 7.281 70.313 A 5.765 5.765 0 0 1 7.25 70.3 Q 6.88 70.136 6.477 69.802 A 5.473 5.473 0 0 1 6.3 69.65 Q 5.816 69.214 5.378 68.544 A 7.728 7.728 0 0 1 5.35 68.5 A 3.581 3.581 0 0 1 4.84 67.176 A 4.26 4.26 0 0 1 4.8 66.9 A 28.723 28.723 0 0 0 5.006 65.872 Q 5.325 64.138 5.7 61.25 A 76.029 76.029 0 0 0 6.297 53.428 A 82.8 82.8 0 0 0 6.3 53.3 Q 6.4 49.5 6.45 44.8 Q 6.499 40.173 6.452 35.014 A 580.66 580.66 0 0 0 6.45 34.85 Q 6.4 29.6 6.3 23.9 Q 6.2 18.2 6 12.5 Z M 350.1 45.6 L 350.1 41.3 A 15.661 15.661 0 0 0 349.573 37.319 A 17.501 17.501 0 0 0 349.5 37.05 Q 348.9 34.9 347.6 33.15 A 9.631 9.631 0 0 0 344.837 30.66 A 11.417 11.417 0 0 0 344.2 30.3 A 9.084 9.084 0 0 0 341.87 29.479 Q 340.818 29.255 339.601 29.211 A 16.662 16.662 0 0 0 339 29.2 Q 336.5 29.2 334.15 29.6 A 51.337 51.337 0 0 0 332.199 29.969 Q 331.309 30.156 330.517 30.361 A 30.319 30.319 0 0 0 330 30.5 A 36.52 36.52 0 0 1 328.538 30.846 Q 322.912 32.048 322.2 30 Q 321.8 28.8 323 27.2 Q 323.962 25.918 325.726 24.764 A 18.064 18.064 0 0 1 326.65 24.2 Q 328.917 22.905 332.04 21.952 A 37.926 37.926 0 0 1 332.55 21.8 A 25.25 25.25 0 0 1 337.358 20.918 A 31.042 31.042 0 0 1 340.1 20.8 A 20.973 20.973 0 0 1 345.173 21.396 A 18.339 18.339 0 0 1 347.65 22.2 A 18.398 18.398 0 0 1 352.754 25.274 A 17.285 17.285 0 0 1 353.6 26.05 Q 356.1 28.5 357.5 31.8 A 17.914 17.914 0 0 1 358.898 38.604 A 20.47 20.47 0 0 1 358.9 38.9 L 358.9 60.7 Q 358.9 62.2 359 64.6 Q 359.1 67 359.6 68.9 Q 360.281 71.455 359.947 72.269 A 0.694 0.694 0 0 1 359.8 72.5 A 1.424 1.424 0 0 1 359.353 72.735 Q 358.929 72.875 358.308 72.852 A 5.104 5.104 0 0 1 358.25 72.85 Q 357.2 72.8 356.2 72.4 A 4.675 4.675 0 0 1 355.092 71.776 Q 354.363 71.234 353.65 70.35 A 10.374 10.374 0 0 1 352.658 68.855 Q 352.02 67.703 351.5 66.2 Q 351.112 66.665 350.274 67.341 A 23.523 23.523 0 0 1 349.75 67.75 Q 348.703 68.546 347.201 69.341 A 29.023 29.023 0 0 1 346.6 69.65 Q 344.7 70.6 342.35 71.3 A 19.841 19.841 0 0 1 337.724 72.085 A 22.05 22.05 0 0 1 337.4 72.1 Q 332.999 72.185 329.744 71.374 A 18.275 18.275 0 0 1 328.6 71.05 A 19.654 19.654 0 0 1 325.71 69.882 Q 324.016 69.025 322.75 67.9 A 12.304 12.304 0 0 1 319.807 64.062 A 11.862 11.862 0 0 1 319.45 63.25 Q 318.4 60.6 318.3 57.7 A 14.987 14.987 0 0 1 318.292 57.201 A 15.117 15.117 0 0 1 319.3 51.8 Q 320.4 48.9 322.8 46.7 A 15.053 15.053 0 0 1 325.844 44.563 A 20.858 20.858 0 0 1 329 43.2 A 21.064 21.064 0 0 1 332.592 42.334 Q 334.789 41.993 337.351 41.993 A 39.733 39.733 0 0 1 338.1 42 Q 340.909 42.097 344.282 43.038 A 37.435 37.435 0 0 1 344.5 43.1 A 25.327 25.327 0 0 1 346.928 43.92 Q 348.788 44.663 350.1 45.6 Z M 160.2 26.8 L 160.2 22.4 A 44.786 44.786 0 0 0 160.166 20.589 Q 160.099 18.933 159.899 17.768 A 12.201 12.201 0 0 0 159.85 17.5 Q 159.527 15.841 158.312 14.096 A 13.688 13.688 0 0 0 158.1 13.8 Q 157.876 13.576 157.792 13.158 A 2.535 2.535 0 0 1 157.75 12.85 Q 157.702 12.227 157.792 11.558 A 7.028 7.028 0 0 1 157.8 11.5 A 4.225 4.225 0 0 1 158.191 10.219 A 4.027 4.027 0 0 1 158.2 10.2 A 3.34 3.34 0 0 1 158.439 9.792 Q 158.584 9.583 158.748 9.429 A 1.776 1.776 0 0 1 158.9 9.3 Q 159.7 8.9 161.3 9.55 A 19.061 19.061 0 0 1 163.422 10.575 A 23.026 23.026 0 0 1 164.55 11.25 A 25.048 25.048 0 0 1 166.476 12.602 A 20.947 20.947 0 0 1 167.5 13.45 A 18.996 18.996 0 0 1 168.054 13.959 Q 168.87 14.741 169.1 15.2 A 4.371 4.371 0 0 1 169.683 16.11 A 3.243 3.243 0 0 1 170 17.5 A 18.796 18.796 0 0 0 169.688 18.787 Q 169.481 19.806 169.45 20.65 A 65.605 65.605 0 0 0 169.42 21.726 Q 169.41 22.2 169.405 22.719 A 114.955 114.955 0 0 0 169.4 23.8 L 169.4 26.1 Q 171.7 25.8 173.9 25.45 Q 176.1 25.1 178.4 24.7 A 3.726 3.726 0 0 1 178.869 24.653 Q 179.28 24.637 179.75 24.7 Q 180.5 24.8 181.2 25.05 A 5.868 5.868 0 0 1 181.845 25.323 A 4.354 4.354 0 0 1 182.4 25.65 A 2.346 2.346 0 0 1 182.604 25.809 Q 182.801 25.982 182.867 26.143 A 0.413 0.413 0 0 1 182.9 26.3 Q 182.9 27.1 182.45 28.05 A 7.577 7.577 0 0 1 181.455 29.609 A 8.631 8.631 0 0 1 181.25 29.85 A 9.567 9.567 0 0 1 180.069 30.984 A 8.468 8.468 0 0 1 179.65 31.3 A 4.336 4.336 0 0 1 179.133 31.616 Q 178.581 31.9 178.1 31.9 A 51.329 51.329 0 0 0 173.178 32.13 A 46.621 46.621 0 0 0 172.5 32.2 L 169.4 32.5 L 169.4 45.7 Q 169.4 49.2 169.5 52.75 A 35.646 35.646 0 0 0 169.802 56.554 A 28.101 28.101 0 0 0 170.3 59.25 Q 170.988 62.147 172.543 63.984 A 8.568 8.568 0 0 0 172.6 64.05 A 5.175 5.175 0 0 0 175.462 65.719 A 7.894 7.894 0 0 0 177.2 65.9 Q 177.9 65.9 178.75 65.8 A 34.303 34.303 0 0 1 179.773 65.695 A 28.205 28.205 0 0 1 180.35 65.65 A 5.601 5.601 0 0 1 180.624 65.638 Q 180.934 65.633 181.206 65.665 A 3.063 3.063 0 0 1 181.65 65.75 Q 182.2 65.9 182.2 66.4 Q 182.2 66.734 181.956 67.277 A 5.97 5.97 0 0 1 181.85 67.5 A 4.435 4.435 0 0 1 181.467 68.122 Q 181.172 68.528 180.75 68.95 Q 180.103 69.597 179.082 70.17 A 11.728 11.728 0 0 1 178.75 70.35 Q 177.5 71 175.8 71.2 A 15.133 15.133 0 0 1 173.824 71.332 A 13.899 13.899 0 0 1 168.55 70.3 A 13.691 13.691 0 0 1 166.036 68.981 A 9.684 9.684 0 0 1 163.4 66.4 A 15.165 15.165 0 0 1 161.045 61.063 A 19.638 19.638 0 0 1 160.6 58.2 Q 160.328 54.938 160.241 50.52 A 224.814 224.814 0 0 1 160.2 46.1 L 160.2 33.5 Q 158.8 33.6 157.4 33.6 L 154.4 33.6 Q 153.826 33.6 152.931 33.325 A 10.688 10.688 0 0 1 152.85 33.3 A 8.337 8.337 0 0 1 151.113 32.518 A 9.225 9.225 0 0 1 151 32.45 A 7.625 7.625 0 0 1 149.881 31.623 A 6.613 6.613 0 0 1 149.45 31.2 A 2.726 2.726 0 0 1 149.048 30.649 A 1.962 1.962 0 0 1 148.8 29.7 Q 148.9 29.1 149.25 28.45 A 3.979 3.979 0 0 1 149.401 28.192 Q 149.666 27.778 149.9 27.7 A 36.265 36.265 0 0 0 151.185 27.676 A 42.508 42.508 0 0 0 151.8 27.65 Q 152.8 27.6 153.8 27.5 L 160.2 26.8 Z M 285.7 56.9 L 285.7 29.3 Q 285 28.8 284.1 28.25 Q 283.2 27.7 282.35 27.1 Q 281.5 26.5 280.9 25.7 A 3.097 3.097 0 0 1 280.455 24.888 A 2.611 2.611 0 0 1 280.3 24 A 0.955 0.955 0 0 1 280.516 23.409 Q 280.756 23.097 281.262 22.822 A 4.492 4.492 0 0 1 281.4 22.75 A 18.398 18.398 0 0 1 282.048 22.44 Q 282.648 22.169 283.096 22.031 A 5.022 5.022 0 0 1 283.2 22 A 24.001 24.001 0 0 1 284.096 21.745 Q 285.172 21.459 286.65 21.15 Q 288.632 20.735 290.232 20.958 A 7.457 7.457 0 0 1 290.5 21 A 2.565 2.565 0 0 1 291.103 21.183 Q 291.36 21.296 291.627 21.467 A 4.616 4.616 0 0 1 291.75 21.55 Q 292.4 22 292.95 22.6 A 6.509 6.509 0 0 1 293.612 23.449 A 5.65 5.65 0 0 1 293.85 23.85 A 3.743 3.743 0 0 1 294.046 24.27 Q 294.13 24.488 294.168 24.686 A 1.658 1.658 0 0 1 294.2 25 L 294.2 27.5 Q 296.6 25.4 299.5 24.3 A 25.794 25.794 0 0 1 301.036 23.768 Q 302.536 23.305 303.625 23.22 A 6.046 6.046 0 0 1 304.1 23.2 A 9.975 9.975 0 0 1 306.426 23.458 A 7.476 7.476 0 0 1 309 24.6 Q 311 26 312.1 28.3 A 5.892 5.892 0 0 1 312.363 28.921 Q 312.603 29.581 312.8 30.5 Q 313.075 31.782 312.679 32.477 A 1.427 1.427 0 0 1 312.6 32.6 Q 312.295 33.058 311.612 33.777 A 25.7 25.7 0 0 1 311.15 34.25 Q 310.1 35.3 309 35.1 A 2.689 2.689 0 0 1 308.138 34.832 Q 307.769 34.65 307.4 34.35 Q 306.6 33.7 305.8 33 Q 305 32.3 304.15 31.7 A 3.48 3.48 0 0 0 303.369 31.279 A 2.735 2.735 0 0 0 302.4 31.1 A 8.579 8.579 0 0 0 298.978 31.831 A 10.798 10.798 0 0 0 297.85 32.4 A 16.868 16.868 0 0 0 295.927 33.685 A 12.412 12.412 0 0 0 294.2 35.3 L 294.2 53.4 Q 294.2 56.6 294.15 59.9 Q 294.1 63.187 293.852 65.829 A 53.312 53.312 0 0 1 293.85 65.85 A 34.857 34.857 0 0 1 293.649 67.56 Q 293.428 69.084 293.1 70.2 Q 292.736 71.438 292.107 71.774 A 1.058 1.058 0 0 1 291.6 71.9 Q 290.708 71.9 289.669 70.918 A 6.711 6.711 0 0 1 289.65 70.9 Q 288.834 70.123 288.138 68.801 A 13.972 13.972 0 0 1 287.75 68 Q 287.089 66.523 286.58 64.502 A 34.342 34.342 0 0 1 286.3 63.3 A 25.779 25.779 0 0 1 285.855 60.35 Q 285.719 58.931 285.702 57.354 A 42.293 42.293 0 0 1 285.7 56.9 Z M 102.8 48.4 Q 102.8 43.7 104.55 39.4 Q 106.3 35.1 109.5 31.8 Q 112.7 28.5 117.1 26.55 A 22.943 22.943 0 0 1 124.684 24.68 A 27.413 27.413 0 0 1 126.8 24.6 Q 131.2 24.6 134.85 26.5 Q 138.5 28.4 141.1 31.6 Q 143.7 34.8 145.15 38.9 Q 146.6 43 146.6 47.4 A 25.56 25.56 0 0 1 144.976 56.28 A 28.717 28.717 0 0 1 144.95 56.35 Q 143.3 60.8 140.3 64.25 Q 137.3 67.7 133.1 69.85 Q 128.9 72 123.8 72 A 22.76 22.76 0 0 1 118.551 71.415 A 19.193 19.193 0 0 1 115.1 70.25 Q 111.2 68.5 108.45 65.35 A 21.081 21.081 0 0 1 104.839 59.439 A 24.975 24.975 0 0 1 104.25 57.85 A 28.515 28.515 0 0 1 102.892 50.922 A 33.995 33.995 0 0 1 102.8 48.4 Z M 186 48.4 Q 186 43.7 187.75 39.4 Q 189.5 35.1 192.7 31.8 Q 195.9 28.5 200.3 26.55 A 22.943 22.943 0 0 1 207.884 24.68 A 27.413 27.413 0 0 1 210 24.6 Q 214.4 24.6 218.05 26.5 Q 221.7 28.4 224.3 31.6 Q 226.9 34.8 228.35 38.9 Q 229.8 43 229.8 47.4 A 25.56 25.56 0 0 1 228.176 56.28 A 28.717 28.717 0 0 1 228.15 56.35 Q 226.5 60.8 223.5 64.25 Q 220.5 67.7 216.3 69.85 Q 212.1 72 207 72 A 22.76 22.76 0 0 1 201.751 71.415 A 19.193 19.193 0 0 1 198.3 70.25 Q 194.4 68.5 191.65 65.35 A 21.081 21.081 0 0 1 188.039 59.439 A 24.975 24.975 0 0 1 187.45 57.85 A 28.515 28.515 0 0 1 186.092 50.922 A 33.995 33.995 0 0 1 186 48.4 Z M 126.6 33.2 A 15.27 15.27 0 0 0 122.115 33.846 A 13.97 13.97 0 0 0 120.5 34.45 Q 117.7 35.7 115.6 37.85 Q 113.5 40 112.35 42.85 Q 111.2 45.7 111.2 48.8 Q 111.2 51.4 112.15 53.95 Q 113.1 56.5 114.8 58.6 Q 116.5 60.7 118.95 62 Q 121.4 63.3 124.3 63.3 Q 127.2 63.3 129.85 61.85 Q 132.5 60.4 134.45 58.1 Q 136.4 55.8 137.55 52.85 A 16.337 16.337 0 0 0 138.696 47.275 A 15.631 15.631 0 0 0 138.7 46.9 Q 138.7 44.5 137.85 42.1 Q 137 39.7 135.45 37.7 Q 133.9 35.7 131.65 34.45 Q 129.4 33.2 126.6 33.2 Z M 209.8 33.2 A 15.27 15.27 0 0 0 205.315 33.846 A 13.97 13.97 0 0 0 203.7 34.45 Q 200.9 35.7 198.8 37.85 Q 196.7 40 195.55 42.85 Q 194.4 45.7 194.4 48.8 Q 194.4 51.4 195.35 53.95 Q 196.3 56.5 198 58.6 Q 199.7 60.7 202.15 62 Q 204.6 63.3 207.5 63.3 Q 210.4 63.3 213.05 61.85 Q 215.7 60.4 217.65 58.1 Q 219.6 55.8 220.75 52.85 A 16.337 16.337 0 0 0 221.896 47.275 A 15.631 15.631 0 0 0 221.9 46.9 Q 221.9 44.5 221.05 42.1 Q 220.2 39.7 218.65 37.7 Q 217.1 35.7 214.85 34.45 Q 212.6 33.2 209.8 33.2 Z M 350.2 58.5 L 350.2 51 A 43.138 43.138 0 0 0 346.497 49.87 A 53.289 53.289 0 0 0 344.05 49.3 Q 340.7 48.6 337.3 48.7 Q 328.239 48.883 327.471 55.517 A 11.166 11.166 0 0 0 327.4 56.8 A 9.599 9.599 0 0 0 327.563 58.638 Q 328.032 61.035 329.85 62 A 8.932 8.932 0 0 0 331.722 62.713 Q 333.908 63.3 337.2 63.3 A 14.669 14.669 0 0 0 339.079 63.173 A 18.913 18.913 0 0 0 340.65 62.9 Q 342.5 62.5 344.25 61.85 Q 346 61.2 347.55 60.3 A 24.336 24.336 0 0 0 348.904 59.456 Q 349.616 58.978 350.2 58.5 Z M 252.3 49.1 A 14.037 14.037 0 0 0 255.521 48.437 A 10.292 10.292 0 0 0 259.25 46.25 A 9.495 9.495 0 0 0 260.806 44.428 A 6.589 6.589 0 0 0 261.9 40.8 Q 261.9 37.5 259.45 35.55 Q 257 33.6 253.1 33.6 A 17.228 17.228 0 0 0 250.759 33.765 A 19.586 19.586 0 0 0 250.2 33.85 A 8.498 8.498 0 0 0 247.766 34.632 A 7.98 7.98 0 0 0 247.45 34.8 Q 246.2 35.5 245.35 36.8 A 5.454 5.454 0 0 0 244.666 38.353 Q 244.448 39.147 244.4 40.1 A 4.539 4.539 0 0 0 244.388 40.402 Q 244.383 41.594 245.05 42.35 A 13.325 13.325 0 0 0 245.873 43.199 Q 246.341 43.643 246.9 44.1 Q 248.584 45.172 249.858 46.097 A 35.721 35.721 0 0 1 250.6 46.65 A 6.259 6.259 0 0 1 251.393 47.365 Q 251.789 47.793 252.018 48.241 A 2.827 2.827 0 0 1 252.3 49.1 Z" vector-effect="non-scaling-stroke"/></g></svg>